<svg width="400" height="120" viewBox="0 0 400 120" fill="none" xmlns="http://www.w3.org/2000/svg">
  <defs>
    <linearGradient id="ai-gradient" x1="0%" y1="0%" x2="100%" y2="0%">
      <stop offset="0%" stop-color="#00F0FF" /> <stop offset="100%" stop-color="#0057FF" /> </linearGradient>
  </defs>

  <g transform="translate(20, 30)">
    <path d="M10 0 C15.5 0 20 4.5 20 10 L20 50 C20 55.5 15.5 60 10 60 C4.5 60 0 55.5 0 50 L0 10 C0 4.5 4.5 0 10 0Z" fill="#F8FAFC"/>
    
    <path d="M50 0 C55.5 0 60 4.5 60 10 L60 50 C60 55.5 55.5 60 50 60 C44.5 60 40 55.5 40 50 L40 10 C40 4.5 44.5 0 50 0Z" fill="#F8FAFC"/>
    
    <path d="M12 30 L48 30" stroke="url(#ai-gradient)" stroke-width="12" stroke-linecap="round"/>
  </g>

  <text x="110" y="72" font-family="system-ui, -apple-system, sans-serif" font-size="48" font-weight="800" fill="#F8FAFC" letter-spacing="4">HUSH</text>
  
  <text x="114" y="95" font-family="ui-monospace, SFMono-Regular, Menlo, Monaco, Consolas, monospace" font-size="11" font-weight="600" fill="#94A3B8" letter-spacing="3">AI_GATEWAY</text>
</svg>
